<?xml version="1.0" encoding="iso-8859-1"?>
<!-- Generator: Adobe Illustrator 16.0.0, SVG Export Plug-In . SVG Version: 6.00 Build 0)  -->
<!DOCTYPE svg PUBLIC "-//W3C//DTD SVG 1.1//EN" "http://www.w3.org/Graphics/SVG/1.1/DTD/svg11.dtd">
<svg version="1.1" id="Capa_1" xmlns="http://www.w3.org/2000/svg" xmlns:xlink="http://www.w3.org/1999/xlink" x="0px" y="0px"
	 width="25.656px" height="25.657px" viewBox="0 0 25.656 25.657" style="enable-background:new 0 0 25.656 25.657;"
	 xml:space="preserve">
<g>
	<g>
		<ellipse cx="12.827" cy="6.934" rx="1.37" ry="0.343"/>
		<circle cx="12.827" cy="14.123" r="0.89"/>
		<path d="M6.532,11.427c0,0.351,0.492,0.76,1.874,0.76h3.143c-0.96-0.74-2.269-1.409-3.143-1.521
			C7.026,10.491,6.532,11.075,6.532,11.427z"/>
		<path d="M19.123,11.427c0-0.351-0.473-0.96-1.874-0.761c-0.874,0.125-2.184,0.781-3.145,1.521h3.145
			C18.632,12.188,19.123,11.778,19.123,11.427z"/>
		<path d="M17.834,16.585c1.811-0.148,2.484-0.971,2.484-1.69v-3.871c0-0.774-0.763-1.963-3.127-1.718
			c-0.346,0.036-0.706,0.135-1.067,0.262V6.645c0-0.587-0.967-1.081-2.296-1.251c0.093-0.23,0.164-0.494,0.205-0.792
			C14.176,3.545,13.798,2.275,12.812,0c-0.369,2.679-1.22,2.948-1.22,4.602c0,0.304,0.058,0.571,0.149,0.802
			c-1.285,0.18-2.212,0.665-2.212,1.241v2.951c-0.353-0.13-0.706-0.237-1.042-0.287c-0.28-0.042-0.535-0.061-0.766-0.061
			c-1.75,0-2.385,1.062-2.385,1.777v3.871c0,0.719,0.673,1.541,2.484,1.69L3.847,23.47l3.203-1.178l0.583,3.364l4.311-7.471
			c0.283,0.031,0.576,0.054,0.884,0.054c0.309,0,0.602-0.022,0.885-0.054l4.311,7.47l0.583-3.363l3.203,1.176L17.834,16.585z
			 M11.934,5.762c0.222,0.301,0.532,0.476,0.879,0.476c0.348,0,0.626-0.18,0.833-0.486c1.36,0.145,2.1,0.624,2.1,0.893
			c0,0.319-1.03,0.938-2.917,0.938c-1.887,0-2.917-0.62-2.917-0.938C9.91,6.382,10.623,5.918,11.934,5.762z M7.919,24.041
			l-0.433-2.503L5.1,22.415l3.412-5.911h3.755L7.919,24.041z M8.405,16.058c-1.917,0-2.51-0.688-2.51-1.162v-3.871
			c0-0.476,0.53-1.458,2.51-1.165c1.891,0.283,4.422,2.327,4.422,2.327s2.518-2.127,4.422-2.327c1.935-0.202,2.51,0.689,2.51,1.165
			v3.871c0,0.475-0.593,1.162-2.51,1.162c-1.914,0-4.422,0-4.422,0S10.317,16.058,8.405,16.058z M18.169,21.538l-0.434,2.503
			l-4.35-7.537h3.755l3.412,5.911L18.169,21.538z"/>
	</g>
</g>
<g>
</g>
<g>
</g>
<g>
</g>
<g>
</g>
<g>
</g>
<g>
</g>
<g>
</g>
<g>
</g>
<g>
</g>
<g>
</g>
<g>
</g>
<g>
</g>
<g>
</g>
<g>
</g>
<g>
</g>
</svg>
